<?xml version="1.0" encoding="UTF-8"?>
<svg id="Layer_1" data-name="Layer 1" xmlns="http://www.w3.org/2000/svg" version="1.1" viewBox="0 0 1403.56 302.28">
  <defs>
    <style>
      .cls-1 {
        fill: #253e34;
        stroke-width: 0px;
      }
    </style>
  </defs>
  <path class="cls-1" d="M639.38,257.25v-101.89c0-37.92-18-62.06-55.16-62.06-26.43,0-51.33,15.71-69.33,37.16v-32.56h-74.7v9.19c13.41,3.83,19.15,7.66,19.15,22.98v127.18c0,15.32-5.75,19.15-19.15,22.98v9.19h94.23v-9.19c-13.41-3.83-19.54-7.66-19.54-22.98v-113.39c12.64-10.34,26.05-16.09,40.22-16.09,19.92,0,28.73,11.49,28.73,31.03v98.45c0,15.32-5.75,19.15-19.15,22.98v9.19h93.85v-9.19c-13.41-3.83-19.15-7.66-19.15-22.98ZM376.04,75.74c19.15,0,35.24-14.56,35.24-34.86s-16.09-34.48-35.24-34.48-35.24,14.17-35.24,34.48,16.09,34.86,35.24,34.86ZM405.54,257.25V97.9h-120.05v9.19c14.17,1.53,17.62,9.19,10.73,25.28l-35.1,84.05-40.36-86.35c-6.13-14.56.77-22.22,18.77-22.98v-9.19h-101.89v9.19c12.64,1.15,19.15,8.81,24.9,22.22l6.51,15.55-31.05,74.36-39.2-89.14c-6.13-14.56.77-22.22,18.77-22.98v-9.19H15.66v9.19c12.64,1.15,19.15,8.81,24.9,22.22l67.04,160.12h20.46l50.71-121.35,50.8,121.35h20.46l66.27-158.59c6.13-14.94,11.88-21.83,21.45-21.83,8.04,0,12.26,4.98,12.26,14.94v133.3c0,15.32-5.75,19.15-19.15,22.98v9.19h93.85v-9.19c-13.41-3.83-19.15-7.66-19.15-22.98ZM891.55,93.3c-58.22,0-96.91,41.75-96.91,104.58,0,49.8,35.62,95,94.62,95,49.03,0,75.85-32.18,82.74-67.8l-4.21-1.53c-12.64,18-31.41,28.73-54.39,28.73-34.48,0-65.5-23.75-64.74-75.46h123.35c-.38-49.8-25.28-83.51-80.44-83.51ZM849.79,160.72c3.83-30.26,14.17-57.08,35.24-57.08s29.88,28.73,31.79,57.08h-67.04ZM1368.74,257.25v-101.89c0-37.92-17.62-62.06-55.16-62.06-26.43,0-51.33,15.71-68.95,37.16V21.28h-5.75l-76.61,21.07v8.43c15.32,3.83,26.81,9.58,26.81,28.73v177.74c0,15.32-5.75,19.15-19.15,22.98v9.19h93.85v-9.19c-13.41-3.83-19.15-7.66-19.15-22.98v-113.39c12.26-10.34,26.05-16.09,40.22-16.09,19.92,0,28.35,11.49,28.35,31.03v98.45c0,15.32-5.75,19.15-19.15,22.98v9.19h93.85v-9.19c-13.41-3.83-19.15-7.66-19.15-22.98ZM1079.53,103.64c21.07,0,29.88,25.28,31.41,57.08h55.16c-3.45-33.71-25.28-67.42-81.97-67.42s-95,41.75-95,104.58c0,49.8,35.62,95,94.23,95,49.03,0,76.23-32.18,82.74-67.8l-4.21-1.53c-12.26,18-31.41,28.73-54.39,28.73-34.48,0-64.74-23.75-64.74-78.91,0-43.29,15.71-69.72,36.77-69.72ZM770.36,267.97c-17.62,0-29.5-11.87-29.5-34.09v-118.75h53.63v-17.24h-53.63v-51.71h-5.75l-70.1,57.46v11.49h20.3v120.66c0,35.62,21.83,57.08,54.78,57.08s48.65-18.39,57.08-30.64l-3.45-3.06c-6.13,5.36-12.26,8.81-23.37,8.81Z"/>
</svg>